<svg width="280" height="33" viewBox="0 0 280 33" fill="none" xmlns="http://www.w3.org/2000/svg">
<path d="M25.0977 25.0078V32H8.14453V25.0078H11.1328V19.2852L2.94922 7.80078H0.742188V0.925781H17.3828V7.80078H15.625L19.1797 12.9961L21.9727 7.80078H19.1406V0.925781H31.582V7.80078H28.0664L22.0312 18.2305V25.0078H25.0977ZM38.8281 32.3516C37.5 32.3516 36.2956 32.0911 35.2148 31.5703C34.1211 31.0625 33.2487 30.3268 32.5977 29.3633C31.9466 28.3997 31.6211 27.2799 31.6211 26.0039C31.6211 24.6237 32.0052 23.4518 32.7734 22.4883C33.5417 21.5508 34.5443 20.8477 35.7812 20.3789C37.0312 19.9102 38.3789 19.6758 39.8242 19.6758C41.5299 19.6758 43.1706 19.9297 44.7461 20.4375V19.5586C44.7461 18.5169 44.3034 17.7227 43.418 17.1758C42.5456 16.6289 41.3607 16.3555 39.8633 16.3555C39.2253 16.3555 38.5091 16.4336 37.7148 16.5898C36.9206 16.7461 36.1458 16.9609 35.3906 17.2344C34.6354 17.5078 33.9779 17.8138 33.418 18.1523L32.8516 17.918V12.2344C34.4271 11.6745 36.0352 11.2773 37.6758 11.043C39.3164 10.7956 40.8464 10.6719 42.2656 10.6719C50.1823 10.6719 54.1406 12.8984 54.1406 17.3516V26.1211H55.9766V32H45.9766L45.0977 28.7969C44.5378 29.8906 43.6654 30.7565 42.4805 31.3945C41.2956 32.0326 40.0781 32.3516 38.8281 32.3516ZM42.5 27.3516C42.9297 27.3516 43.3659 27.2799 43.8086 27.1367C44.2643 26.9935 44.5768 26.8438 44.7461 26.6875V23.4062C44.5508 23.3802 44.2383 23.3021 43.8086 23.1719C43.3659 23.0547 42.9818 22.9961 42.6562 22.9961C41.9661 22.9961 41.4128 23.2109 40.9961 23.6406C40.5924 24.0703 40.3906 24.6432 40.3906 25.3594C40.3906 25.8932 40.5794 26.362 40.957 26.7656C41.3477 27.1562 41.862 27.3516 42.5 27.3516ZM84.9805 18.7188V26.3555H87.6953V32H75.6055V18.6797C75.6055 18.1198 75.4232 17.625 75.0586 17.1953C74.707 16.7656 74.2773 16.5508 73.7695 16.5508C72.819 16.5508 72.2201 17.026 71.9727 17.9766C71.7122 18.9531 71.582 20.3203 71.582 22.0781V26.3555H71.6211V32H59.4141V26.3555H62.2461V17.1172H59.4141V11.8438L71.582 10.6719V13.6016C72.4805 12.5339 73.5026 11.7786 74.6484 11.3359C75.7943 10.8932 77.0898 10.6719 78.5352 10.6719C82.832 10.6719 84.9805 13.3542 84.9805 18.7188ZM98.7109 32.3516C96.8229 32.3516 95.1888 31.8503 93.8086 30.8477C92.4414 29.8451 91.3997 28.5039 90.6836 26.8242C89.9805 25.1315 89.6289 23.2695 89.6289 21.2383C89.6289 19.4023 89.9935 17.6641 90.7227 16.0234C91.4518 14.4089 92.4805 13.1133 93.8086 12.1367C95.1497 11.1602 96.7318 10.6719 98.5547 10.6719C99.8828 10.6719 101.022 10.8867 101.973 11.3164C102.923 11.7461 103.809 12.3841 104.629 13.2305V8.11328H101.504V2.80078L114.023 1.51172V26.1211H116.504V32H104.473V29.4805C103.835 30.3398 103.021 31.0299 102.031 31.5508C101.042 32.0586 99.9349 32.3255 98.7109 32.3516ZM101.836 26.6484C102.448 26.6484 103.001 26.5052 103.496 26.2188C103.991 25.9193 104.368 25.5677 104.629 25.1641V17.7617C104.329 17.4102 103.926 17.0977 103.418 16.8242C102.923 16.5378 102.396 16.3945 101.836 16.3945C100.82 16.3945 99.9935 16.8112 99.3555 17.6445C98.7174 18.4648 98.3984 19.6628 98.3984 21.2383C98.3984 22.8398 98.6914 24.1419 99.2773 25.1445C99.8633 26.1471 100.716 26.6484 101.836 26.6484ZM130.918 32.3516C128.496 32.3516 126.393 31.9023 124.609 31.0039C122.812 30.1185 121.432 28.849 120.469 27.1953C119.518 25.5417 119.043 23.6081 119.043 21.3945C119.043 19.207 119.512 17.306 120.449 15.6914C121.374 14.0898 122.682 12.8529 124.375 11.9805C126.068 11.1081 128.053 10.6719 130.332 10.6719C132.428 10.6719 134.277 11.082 135.879 11.9023C137.48 12.7357 138.717 13.9141 139.59 15.4375C140.475 16.9609 140.918 18.7383 140.918 20.7695C140.918 21.4727 140.814 22.1367 140.605 22.7617H128.438C128.438 23.9857 128.9 24.9688 129.824 25.7109C130.749 26.4401 131.862 26.8047 133.164 26.8047C134.154 26.8047 135.241 26.6354 136.426 26.2969C137.611 25.9453 138.802 25.4049 140 24.6758L140.332 24.793V30.0469C138.991 30.8151 137.611 31.3945 136.191 31.7852C134.785 32.1628 133.027 32.3516 130.918 32.3516ZM128.438 18.7578V19.3242H133.438V18.9141C133.438 17.9896 133.223 17.1953 132.793 16.5312C132.376 15.8542 131.751 15.5156 130.918 15.5156C130.228 15.5156 129.642 15.8607 129.16 16.5508C128.678 17.2279 128.438 17.9635 128.438 18.7578ZM154.199 26.6094L150.156 32H144.355V26.1211H147.285L150.801 22L147.227 17.1172H144.707V11.082H154.395L157.559 15.9648L161.152 11.082H166.523V17.1172H163.965L160.801 20.6719L164.551 26.1211H167.109V32H157.871L154.199 26.6094ZM203.613 24.9688V32H186.211V24.9688H189.414V7.80078H186.66L185.82 13.1523H180.332V0.925781H209.57V13.1523H204.102L203.262 7.80078H200.41V24.9688H203.613ZM218.555 32.3516C217.227 32.3516 216.022 32.0911 214.941 31.5703C213.848 31.0625 212.975 30.3268 212.324 29.3633C211.673 28.3997 211.348 27.2799 211.348 26.0039C211.348 24.6237 211.732 23.4518 212.5 22.4883C213.268 21.5508 214.271 20.8477 215.508 20.3789C216.758 19.9102 218.105 19.6758 219.551 19.6758C221.257 19.6758 222.897 19.9297 224.473 20.4375V19.5586C224.473 18.5169 224.03 17.7227 223.145 17.1758C222.272 16.6289 221.087 16.3555 219.59 16.3555C218.952 16.3555 218.236 16.4336 217.441 16.5898C216.647 16.7461 215.872 16.9609 215.117 17.2344C214.362 17.5078 213.704 17.8138 213.145 18.1523L212.578 17.918V12.2344C214.154 11.6745 215.762 11.2773 217.402 11.043C219.043 10.7956 220.573 10.6719 221.992 10.6719C229.909 10.6719 233.867 12.8984 233.867 17.3516V26.1211H235.703V32H225.703L224.824 28.7969C224.264 29.8906 223.392 30.7565 222.207 31.3945C221.022 32.0326 219.805 32.3516 218.555 32.3516ZM222.227 27.3516C222.656 27.3516 223.092 27.2799 223.535 27.1367C223.991 26.9935 224.303 26.8438 224.473 26.6875V23.4062C224.277 23.3802 223.965 23.3021 223.535 23.1719C223.092 23.0547 222.708 22.9961 222.383 22.9961C221.693 22.9961 221.139 23.2109 220.723 23.6406C220.319 24.0703 220.117 24.6432 220.117 25.3594C220.117 25.8932 220.306 26.362 220.684 26.7656C221.074 27.1562 221.589 27.3516 222.227 27.3516ZM248.574 26.6094L244.531 32H238.73V26.1211H241.66L245.176 22L241.602 17.1172H239.082V11.082H248.77L251.934 15.9648L255.527 11.082H260.898V17.1172H258.34L255.176 20.6719L258.926 26.1211H261.484V32H252.246L248.574 26.6094ZM271.973 9.03125C270.345 9.03125 269.004 8.64714 267.949 7.87891C266.895 7.11068 266.367 6.00391 266.367 4.55859C266.367 3.11328 266.895 2.01953 267.949 1.27734C269.004 0.535156 270.358 0.164062 272.012 0.164062C273.665 0.164062 275.007 0.528646 276.035 1.25781C277.077 1.98698 277.598 3.08724 277.598 4.55859C277.598 6.00391 277.064 7.11068 275.996 7.87891C274.941 8.64714 273.6 9.03125 271.973 9.03125ZM279.16 26.1211V32H264.766V26.1211H267.285V17.1172H264.766V12.3125L276.641 11.082V26.1211H279.16Z" fill="white"/>
</svg>
